PathFileType	4	(X/Y/Z)	/tmp/tmpfbxcaoho/Subject7/MarkerData/Take_2_10hz_segment_1.trc
DataRate	CameraRate	NumFrames	NumMarkers	Units	OrigDataRate	OrigDataStartFrame	OrigNumFrames
50.0148	50.0148	8	39	m	50.0148	343	1375
Frame#	Time	C7			CLAV			LANK			LASI			LBHD			LELB			LFHD			LFIN			LFRM			LHEE			LKNE			LPSI			LSHO			LTHI			LTIB			LTOE			LUPA			LWRA			LWRB			RANK			RASI			RBAK			RBHD			RELB			RFHD			RFIN			RFRM			RHEE			RKNE			RPSI			RSHO			RTHI			RTIB			RTOE			RUPA			RWRA			RWRB			STRN			T10		
		X1	Y1	Z1	X2	Y2	Z2	X3	Y3	Z3	X4	Y4	Z4	X5	Y5	Z5	X6	Y6	Z6	X7	Y7	Z7	X8	Y8	Z8	X9	Y9	Z9	X10	Y10	Z10	X11	Y11	Z11	X12	Y12	Z12	X13	Y13	Z13	X14	Y14	Z14	X15	Y15	Z15	X16	Y16	Z16	X17	Y17	Z17	X18	Y18	Z18	X19	Y19	Z19	X20	Y20	Z20	X21	Y21	Z21	X22	Y22	Z22	X23	Y23	Z23	X24	Y24	Z24	X25	Y25	Z25	X26	Y26	Z26	X27	Y27	Z27	X28	Y28	Z28	X29	Y29	Z29	X30	Y30	Z30	X31	Y31	Z31	X32	Y32	Z32	X33	Y33	Z33	X34	Y34	Z34	X35	Y35	Z35	X36	Y36	Z36	X37	Y37	Z37	X38	Y38	Z38	X39	Y39	Z39

344	46.878	-0.987443	1.36889	1.53291	-0.913493	1.27403	1.63024	-0.563919	0.170988	1.47099	-0.821273	0.869944	1.52553	-0.912596	1.53637	1.50949	-0.685595	1.02669	1.42985	-0.817216	1.51151	1.67169	-0.514831	0.754248	1.55342	-0.619014	0.897237	1.46786	-0.660188	0.12685	1.46252	-0.618307	0.552915	1.54855	-0.920327	0.885513	1.40987	-0.793399	1.30895	1.47284	-0.701112	0.702908	1.52299	-0.587142	0.369536	1.48524	-0.429753	0.0374479	1.56632	-0.732705	1.15177	1.4396	-0.561766	0.830227	1.59158	-0.558585	0.787898	1.51443	-1.05642	0.0918613	1.53446	-1.02658	0.867578	1.70013	-1.11089	1.23729	1.50635	-0.996661	1.5392	1.57159	-1.16136	1.06199	1.84182	-0.908567	1.5207	1.71734	-1.09966	0.820131	2.05905	-1.15801	0.938721	1.92157	-1.04494	0.0510495	1.43122	-0.956167	0.438989	1.72312	-1.13009	0.881087	1.56098	-1.07713	1.32042	1.69362	-1.00531	0.659448	1.73676	-1.01612	0.246057	1.63797	-0.928102	0.0507931	1.66865	-1.13558	1.1499	1.78529	-1.04709	0.849585	1.9882	-1.1296	0.82137	2.00008	-0.893508	1.10699	1.666	-1.0411	1.02676	1.4557
345	46.898	-0.998087	1.36764	1.53284	-0.919761	1.27339	1.62756	-0.605195	0.179336	1.47228	-0.831538	0.868273	1.52088	-0.927333	1.53563	1.50644	-0.706622	1.01724	1.43367	-0.822116	1.51187	1.66267	-0.550563	0.740086	1.56965	-0.648353	0.886094	1.47665	-0.704925	0.141772	1.46799	-0.623475	0.561796	1.55979	-0.934674	0.882437	1.40878	-0.805539	1.30762	1.46502	-0.709184	0.708815	1.52761	-0.609468	0.378839	1.49256	-0.476629	0.0368028	1.55782	-0.749554	1.14698	1.43579	-0.588146	0.824439	1.6001	-0.593324	0.775317	1.52791	-1.05651	0.0916604	1.53504	-1.02981	0.867073	1.70349	-1.12217	1.23561	1.51178	-1.00728	1.5373	1.57329	-1.14591	1.05863	1.85005	-0.910704	1.52006	1.71389	-1.05673	0.814033	2.05877	-1.13061	0.934333	1.92812	-1.04478	0.0502555	1.43068	-0.957516	0.438587	1.72472	-1.13861	0.879757	1.5673	-1.08071	1.31944	1.6972	-1.00793	0.658774	1.73998	-1.01637	0.245457	1.63883	-0.928042	0.0506719	1.66871	-1.12811	1.14789	1.79204	-1.01097	0.852253	1.98631	-1.08986	0.81678	2.00129	-0.898006	1.10673	1.66307	-1.05507	1.0257	1.45807
346	46.918	-1.008	1.36579	1.53338	-0.925731	1.27218	1.62554	-0.64911	0.190601	1.47341	-0.840721	0.866093	1.51747	-0.942651	1.5344	1.50397	-0.72573	1.01022	1.43896	-0.826781	1.51225	1.65342	-0.580686	0.731437	1.58858	-0.674395	0.878344	1.48766	-0.752007	0.162426	1.47333	-0.627526	0.569848	1.56736	-0.947516	0.879193	1.40876	-0.817147	1.30594	1.45863	-0.716426	0.714125	1.53059	-0.633002	0.388691	1.49844	-0.531506	0.0360851	1.55004	-0.764156	1.14294	1.43315	-0.61175	0.821656	1.61101	-0.623866	0.767003	1.5442	-1.05685	0.0913614	1.53566	-1.03242	0.865879	1.70706	-1.13237	1.23328	1.51732	-1.0175	1.53469	1.57587	-1.13143	1.05583	1.85689	-0.912022	1.51926	1.71014	-1.01352	0.811764	2.05577	-1.10381	0.931668	1.93311	-1.04494	0.0503178	1.43077	-0.959218	0.437418	1.72751	-1.14579	0.878024	1.57405	-1.0841	1.31796	1.70068	-1.01055	0.657311	1.74409	-1.01702	0.244494	1.64021	-0.928164	0.0506403	1.66878	-1.1211	1.14609	1.79821	-0.976043	0.857894	1.98238	-1.05034	0.815378	2.00065	-0.902182	1.10589	1.66091	-1.06679	1.02352	1.46142
347	46.9379	-1.01629	1.36385	1.53478	-0.930925	1.27067	1.62458	-0.699653	0.202691	1.47201	-0.847566	0.865059	1.51716	-0.957071	1.53311	1.50274	-0.742244	1.0053	1.44418	-0.831072	1.51296	1.64533	-0.608262	0.725875	1.60886	-0.697269	0.873284	1.49948	-0.805375	0.185595	1.47439	-0.63338	0.572398	1.57049	-0.956789	0.877344	1.41052	-0.827055	1.30421	1.45458	-0.723408	0.716162	1.53247	-0.660376	0.396564	1.50079	-0.596837	0.0365356	1.54441	-0.77622	1.13964	1.43254	-0.634331	0.820626	1.62382	-0.651333	0.76201	1.56181	-1.05734	0.0910186	1.53626	-1.03417	0.864605	1.71059	-1.14064	1.23105	1.52287	-1.0265	1.53185	1.57951	-1.11826	1.05381	1.86252	-0.912732	1.51864	1.70685	-0.971182	0.812783	2.04894	-1.07819	0.930643	1.93603	-1.0452	0.0506557	1.43138	-0.960871	0.436079	1.73034	-1.15115	0.876477	1.58063	-1.08689	1.31648	1.70414	-1.01275	0.655511	1.74837	-1.01781	0.243444	1.64179	-0.928328	0.0506303	1.66882	-1.11463	1.14478	1.80363	-0.943203	0.865986	1.97556	-1.012	0.816828	1.99705	-0.905828	1.10463	1.65983	-1.07621	1.02127	1.46524
348	46.9579	-1.02199	1.36181	1.53699	-0.934524	1.26869	1.62477	-0.756866	0.209473	1.46626	-0.851906	0.864361	1.51951	-0.968439	1.53091	1.5031	-0.754677	1.00143	1.44943	-0.834135	1.51381	1.63877	-0.634935	0.720567	1.6285	-0.716632	0.869151	1.51078	-0.865003	0.200603	1.46857	-0.643364	0.565343	1.57009	-0.962198	0.876403	1.41351	-0.833922	1.30227	1.4533	-0.730888	0.710876	1.53429	-0.693372	0.396679	1.49804	-0.664167	0.0390566	1.54065	-0.78474	1.13659	1.43412	-0.655208	0.818778	1.63669	-0.676209	0.757785	1.57826	-1.05788	0.0907105	1.5368	-1.03553	0.862754	1.71382	-1.14615	1.22905	1.52829	-1.03337	1.52871	1.58393	-1.10528	1.05253	1.86749	-0.912284	1.51829	1.70458	-0.929771	0.816827	2.03898	-1.05308	0.931075	1.93724	-1.04547	0.0505526	1.4312	-0.961983	0.434689	1.73286	-1.15473	0.875023	1.58614	-1.08828	1.31493	1.70761	-1.01448	0.653714	1.7521	-1.01841	0.242412	1.64342	-0.92845	0.0505723	1.66884	-1.10765	1.14384	1.80857	-0.912075	0.87589	1.96626	-0.974763	0.820762	1.99068	-0.908345	1.10275	1.66003	-1.08287	1.01922	1.46905
349	46.9779	-1.02534	1.35853	1.53945	-0.936499	1.2653	1.62556	-0.808492	0.206445	1.45836	-0.855059	0.860986	1.52066	-0.976835	1.52686	1.5046	-0.76239	0.997092	1.45529	-0.835864	1.51332	1.63339	-0.6604	0.713438	1.64598	-0.731962	0.864303	1.52084	-0.918158	0.199411	1.46069	-0.657407	0.548505	1.56695	-0.966466	0.873858	1.41566	-0.837969	1.29901	1.45383	-0.738745	0.698027	1.53537	-0.725769	0.386644	1.49188	-0.715634	0.0411686	1.53509	-0.789663	1.13234	1.43697	-0.673272	0.814242	1.64821	-0.697875	0.752395	1.59186	-1.05824	0.0905543	1.53725	-1.037	0.858538	1.71619	-1.14954	1.22594	1.53312	-1.03813	1.52414	1.58872	-1.09151	1.05107	1.8721	-0.910619	1.51675	1.70305	-0.88961	0.822897	2.0273	-1.02792	0.932026	1.93742	-1.0459	0.0512427	1.43143	-0.961239	0.432481	1.73567	-1.15693	0.872351	1.59079	-1.08824	1.31221	1.71074	-1.0149	0.651256	1.75536	-1.01804	0.241141	1.64522	-0.928476	0.05043	1.66889	-1.09959	1.14228	1.81306	-0.882385	0.886496	1.95599	-0.938583	0.82601	1.98257	-0.90964	1.09936	1.6608	-1.08696	1.01618	1.47262
350	46.9979	-1.02767	1.35372	1.54182	-0.937508	1.26025	1.62615	-0.839347	0.196564	1.45348	-0.85773	0.855475	1.52004	-0.984098	1.52104	1.50682	-0.766963	0.991819	1.46058	-0.836646	1.51091	1.6278	-0.684707	0.705562	1.66134	-0.744146	0.858627	1.52907	-0.949805	0.187226	1.45737	-0.669658	0.53096	1.56249	-0.971027	0.869665	1.41683	-0.840975	1.29413	1.45446	-0.745151	0.684282	1.53387	-0.747306	0.372765	1.48648	-0.740683	0.0404207	1.52931	-0.7927	1.12707	1.43927	-0.689277	0.808044	1.65784	-0.716526	0.746175	1.60276	-1.0582	0.0906176	1.53758	-1.03815	0.85235	1.71789	-1.152	1.22134	1.53763	-1.04132	1.51798	1.59403	-1.07638	1.04891	1.87646	-0.907582	1.51328	1.70131	-0.850922	0.829539	2.01459	-1.00244	0.932713	1.93673	-1.04647	0.052858	1.43124	-0.958288	0.429274	1.73888	-1.15874	0.868191	1.59534	-1.08714	1.30789	1.71362	-1.01374	0.647607	1.75828	-1.01637	0.239575	1.64707	-0.928445	0.0502584	1.66898	-1.09025	1.13961	1.81719	-0.85394	0.896428	1.94514	-0.903647	0.831255	1.97296	-0.910159	1.09424	1.66099	-1.09007	1.01174	1.4759
351	47.0179	-1.03035	1.34846	1.54399	-0.938674	1.25468	1.62611	-0.847705	0.189029	1.45389	-0.860397	0.850203	1.51858	-0.992472	1.51457	1.50967	-0.77022	0.986557	1.46487	-0.836916	1.50768	1.61981	-0.707256	0.700327	1.676	-0.75396	0.853551	1.53567	-0.959627	0.179735	1.45984	-0.674169	0.52226	1.55878	-0.976123	0.864841	1.41741	-0.844549	1.28868	1.45443	-0.748451	0.676575	1.53066	-0.754083	0.364539	1.48459	-0.746097	0.0385789	1.52669	-0.796227	1.12157	1.44053	-0.703772	0.802856	1.66624	-0.732148	0.741121	1.61156	-1.05777	0.0908283	1.53774	-1.03765	0.846704	1.71925	-1.1547	1.21629	1.54193	-1.04353	1.51138	1.6005	-1.05949	1.04708	1.87999	-0.902527	1.50885	1.69791	-0.813264	0.837179	2.0002	-0.976203	0.934024	1.93476	-1.04677	0.0535579	1.43115	-0.953499	0.425873	1.74154	-1.16074	0.863614	1.60001	-1.08594	1.30295	1.71617	-1.01113	0.643549	1.76051	-1.01359	0.238067	1.6485	-0.928338	0.0501553	1.66907	-1.07982	1.13674	1.82044	-0.826158	0.906244	1.93303	-0.869574	0.837077	1.96133	-0.911002	1.08847	1.66032	-1.09349	1.00684	1.47881
